<mxfile host="app.diagrams.net" modified="2023-05-06T15:38:15.335Z" agent="Mozilla/5.0 (Windows NT 10.0; Win64; x64) AppleWebKit/537.36 (KHTML, like Gecko) Chrome/113.0.0.0 Safari/537.36" etag="KgjsFpGbmXG8zMR7mPjP" version="21.2.9" type="google" pages="2">
  <diagram name=" 公司發票功能" id="c4acf3e9-155e-7222-9cf6-157b1a14988f">
    <mxGraphModel grid="1" page="1" gridSize="10" guides="1" tooltips="1" connect="1" arrows="1" fold="1" pageScale="1" pageWidth="850" pageHeight="1100" background="none" math="0" shadow="0">
      <root>
        <mxCell id="0" />
        <mxCell id="1" parent="0" />
        <mxCell id="pzGzUAJ5aYeJw6mnml0p-1" value="&lt;p style=&quot;margin:0px;margin-top:4px;text-align:center;&quot;&gt;&lt;b&gt;客戶主檔修改&lt;/b&gt;&lt;/p&gt;&lt;hr size=&quot;1&quot;&gt;&lt;p style=&quot;border-color: var(--border-color); margin: 0px 0px 0px 4px;&quot;&gt;# 統一編號(): Int&lt;/p&gt;&lt;p style=&quot;border-color: var(--border-color); margin: 0px 0px 0px 4px;&quot;&gt;# 買受人(): String&lt;/p&gt;&lt;p style=&quot;border-color: var(--border-color); margin: 0px 0px 0px 4px;&quot;&gt;# 地址(): String&lt;/p&gt;&lt;hr size=&quot;1&quot;&gt;&lt;p style=&quot;margin:0px;margin-left:4px;&quot;&gt;&lt;br&gt;&lt;/p&gt;" style="verticalAlign=top;align=left;overflow=fill;fontSize=12;fontFamily=Helvetica;html=1;whiteSpace=wrap;" vertex="1" parent="1">
          <mxGeometry x="-215" y="521" width="160" height="100" as="geometry" />
        </mxCell>
        <mxCell id="pzGzUAJ5aYeJw6mnml0p-2" value="&lt;p style=&quot;margin:0px;margin-top:4px;text-align:center;&quot;&gt;&lt;b&gt;使用者修改密碼&lt;/b&gt;&lt;/p&gt;&lt;hr size=&quot;1&quot;&gt;&lt;p style=&quot;border-color: var(--border-color); margin: 0px 0px 0px 4px;&quot;&gt;- 一次性密碼(): String&lt;span style=&quot;background-color: initial;&quot;&gt;&lt;br&gt;&lt;/span&gt;&lt;/p&gt;&lt;p style=&quot;border-color: var(--border-color); margin: 0px 0px 0px 4px;&quot;&gt;&lt;span style=&quot;background-color: initial;&quot;&gt;- 新密碼(): String&lt;/span&gt;&lt;/p&gt;&lt;hr size=&quot;1&quot;&gt;&lt;p style=&quot;border-color: var(--border-color); margin: 0px 0px 0px 4px;&quot;&gt;&lt;br&gt;&lt;/p&gt;&lt;p style=&quot;border-color: var(--border-color); margin: 0px 0px 0px 4px;&quot;&gt;&lt;br&gt;&lt;/p&gt;" style="verticalAlign=top;align=left;overflow=fill;fontSize=12;fontFamily=Helvetica;html=1;whiteSpace=wrap;" vertex="1" parent="1">
          <mxGeometry x="203" y="332" width="160" height="88" as="geometry" />
        </mxCell>
        <mxCell id="pzGzUAJ5aYeJw6mnml0p-3" value="&lt;p style=&quot;margin:0px;margin-top:4px;text-align:center;&quot;&gt;&lt;b&gt;發票主檔&lt;/b&gt;&lt;/p&gt;&lt;hr size=&quot;1&quot;&gt;&lt;p style=&quot;border-color: var(--border-color); margin: 0px 0px 0px 4px;&quot;&gt;# 發票號碼(): String&lt;/p&gt;&lt;p style=&quot;border-color: var(--border-color); margin: 0px 0px 0px 4px;&quot;&gt;# 二聯三聯(): String&lt;/p&gt;&lt;p style=&quot;border-color: var(--border-color); margin: 0px 0px 0px 4px;&quot;&gt;# 年份月份(): String&lt;/p&gt;&lt;p style=&quot;border-color: var(--border-color); margin: 0px 0px 0px 4px;&quot;&gt;# 日期(): String&lt;/p&gt;&lt;p style=&quot;border-color: var(--border-color); margin: 0px 0px 0px 4px;&quot;&gt;# 統一編號(): Int&lt;/p&gt;&lt;p style=&quot;border-color: var(--border-color); margin: 0px 0px 0px 4px;&quot;&gt;# 買受人(): String&lt;/p&gt;&lt;p style=&quot;border-color: var(--border-color); margin: 0px 0px 0px 4px;&quot;&gt;# 地址(): String&lt;/p&gt;&lt;p style=&quot;border-color: var(--border-color); margin: 0px 0px 0px 4px;&quot;&gt;# 合計(): Int&lt;/p&gt;&lt;p style=&quot;border-color: var(--border-color); margin: 0px 0px 0px 4px;&quot;&gt;# 稅別(): String&lt;/p&gt;&lt;p style=&quot;border-color: var(--border-color); margin: 0px 0px 0px 4px;&quot;&gt;# 稅額(): Int&lt;/p&gt;&lt;p style=&quot;border-color: var(--border-color); margin: 0px 0px 0px 4px;&quot;&gt;# 總計(): Int&lt;/p&gt;&lt;p style=&quot;border-color: var(--border-color); margin: 0px 0px 0px 4px;&quot;&gt;# 中文總計(): String&lt;/p&gt;&lt;p style=&quot;border-color: var(--border-color); margin: 0px 0px 0px 4px;&quot;&gt;- 匯入日期(): String&lt;/p&gt;&lt;p style=&quot;border-color: var(--border-color); margin: 0px 0px 0px 4px;&quot;&gt;# 修改者帳號(): String&lt;/p&gt;&lt;p style=&quot;border-color: var(--border-color); margin: 0px 0px 0px 4px;&quot;&gt;# 檢核正確否(): Boolean&lt;/p&gt;&lt;p style=&quot;border-color: var(--border-color); margin: 0px 0px 0px 4px;&quot;&gt;- 掃描檔連結(): String&lt;/p&gt;&lt;p style=&quot;border-color: var(--border-color); margin: 0px 0px 0px 4px;&quot;&gt;- 匯入人員(): String&lt;/p&gt;&lt;hr size=&quot;1&quot;&gt;&lt;p style=&quot;margin:0px;margin-left:4px;&quot;&gt;&lt;br&gt;&lt;/p&gt;" style="verticalAlign=top;align=left;overflow=fill;fontSize=12;fontFamily=Helvetica;html=1;whiteSpace=wrap;" vertex="1" parent="1">
          <mxGeometry x="255" y="465" width="160" height="310" as="geometry" />
        </mxCell>
        <mxCell id="pzGzUAJ5aYeJw6mnml0p-4" value="&lt;p style=&quot;margin:0px;margin-top:4px;text-align:center;&quot;&gt;&lt;b&gt;發票明細檔&lt;/b&gt;&lt;/p&gt;&lt;hr size=&quot;1&quot;&gt;&lt;p style=&quot;border-color: var(--border-color); margin: 0px 0px 0px 4px;&quot;&gt;# 發票號碼(): String&lt;/p&gt;&lt;p style=&quot;border-color: var(--border-color); margin: 0px 0px 0px 4px;&quot;&gt;# 項次(): Int&lt;/p&gt;&lt;p style=&quot;border-color: var(--border-color); margin: 0px 0px 0px 4px;&quot;&gt;# 品名(): String&lt;/p&gt;&lt;p style=&quot;border-color: var(--border-color); margin: 0px 0px 0px 4px;&quot;&gt;# 單價(): Int&lt;/p&gt;&lt;p style=&quot;border-color: var(--border-color); margin: 0px 0px 0px 4px;&quot;&gt;# 數量(): Int&lt;/p&gt;&lt;p style=&quot;border-color: var(--border-color); margin: 0px 0px 0px 4px;&quot;&gt;# 金額(): Int&lt;/p&gt;&lt;hr size=&quot;1&quot;&gt;&lt;p style=&quot;margin:0px;margin-left:4px;&quot;&gt;&lt;br&gt;&lt;/p&gt;&lt;p style=&quot;margin:0px;margin-left:4px;&quot;&gt;&lt;br&gt;&lt;/p&gt;" style="verticalAlign=top;align=left;overflow=fill;fontSize=12;fontFamily=Helvetica;html=1;whiteSpace=wrap;" vertex="1" parent="1">
          <mxGeometry x="-15" y="505" width="160" height="150" as="geometry" />
        </mxCell>
        <mxCell id="pzGzUAJ5aYeJw6mnml0p-5" value="&lt;p style=&quot;margin:0px;margin-top:4px;text-align:center;&quot;&gt;&lt;b&gt;修改會員資料及權限&lt;/b&gt;&lt;/p&gt;&lt;hr size=&quot;1&quot;&gt;&lt;p style=&quot;border-color: var(--border-color); margin: 0px 0px 0px 4px;&quot;&gt;# 帳號(): String&lt;/p&gt;&lt;p style=&quot;border-color: var(--border-color); margin: 0px 0px 0px 4px;&quot;&gt;- 密碼(): String&lt;/p&gt;&lt;p style=&quot;border-color: var(--border-color); margin: 0px 0px 0px 4px;&quot;&gt;# 公司(): String&lt;/p&gt;&lt;p style=&quot;border-color: var(--border-color); margin: 0px 0px 0px 4px;&quot;&gt;-權限(): String&lt;/p&gt;&lt;hr size=&quot;1&quot;&gt;&lt;p style=&quot;border-color: var(--border-color); margin: 0px 0px 0px 4px;&quot;&gt;&lt;br&gt;&lt;/p&gt;" style="verticalAlign=top;align=left;overflow=fill;fontSize=12;fontFamily=Helvetica;html=1;whiteSpace=wrap;" vertex="1" parent="1">
          <mxGeometry x="25" y="330.5" width="160" height="115.5" as="geometry" />
        </mxCell>
        <mxCell id="pzGzUAJ5aYeJw6mnml0p-6" style="rounded=0;orthogonalLoop=1;jettySize=auto;html=1;entryX=0;entryY=0.25;entryDx=0;entryDy=0;endArrow=none;endFill=0;exitX=1;exitY=0.25;exitDx=0;exitDy=0;" edge="1" parent="1" source="pzGzUAJ5aYeJw6mnml0p-28" target="pzGzUAJ5aYeJw6mnml0p-5">
          <mxGeometry relative="1" as="geometry">
            <mxPoint x="-65" y="360" as="sourcePoint" />
          </mxGeometry>
        </mxCell>
        <mxCell id="pzGzUAJ5aYeJw6mnml0p-7" style="edgeStyle=orthogonalEdgeStyle;rounded=0;orthogonalLoop=1;jettySize=auto;html=1;entryX=0.5;entryY=0;entryDx=0;entryDy=0;endArrow=none;endFill=0;exitX=0.5;exitY=1;exitDx=0;exitDy=0;" edge="1" parent="1" source="pzGzUAJ5aYeJw6mnml0p-28" target="pzGzUAJ5aYeJw6mnml0p-1">
          <mxGeometry relative="1" as="geometry">
            <mxPoint x="-135" y="465" as="sourcePoint" />
          </mxGeometry>
        </mxCell>
        <mxCell id="pzGzUAJ5aYeJw6mnml0p-8" value="1..*" style="text;html=1;strokeColor=none;fillColor=none;align=center;verticalAlign=middle;whiteSpace=wrap;rounded=0;" vertex="1" parent="1">
          <mxGeometry x="-65" y="342" width="50" height="20" as="geometry" />
        </mxCell>
        <mxCell id="pzGzUAJ5aYeJw6mnml0p-9" value="*" style="text;html=1;strokeColor=none;fillColor=none;align=center;verticalAlign=middle;whiteSpace=wrap;rounded=0;" vertex="1" parent="1">
          <mxGeometry x="-10" y="342" width="50" height="20" as="geometry" />
        </mxCell>
        <mxCell id="pzGzUAJ5aYeJw6mnml0p-10" style="edgeStyle=orthogonalEdgeStyle;rounded=0;orthogonalLoop=1;jettySize=auto;html=1;entryX=0.5;entryY=0;entryDx=0;entryDy=0;endArrow=none;endFill=0;exitX=0.5;exitY=1;exitDx=0;exitDy=0;" edge="1" parent="1" source="pzGzUAJ5aYeJw6mnml0p-27" target="pzGzUAJ5aYeJw6mnml0p-2">
          <mxGeometry relative="1" as="geometry">
            <mxPoint x="300" y="280" as="sourcePoint" />
          </mxGeometry>
        </mxCell>
        <mxCell id="pzGzUAJ5aYeJw6mnml0p-11" style="edgeStyle=orthogonalEdgeStyle;rounded=0;orthogonalLoop=1;jettySize=auto;html=1;entryX=0;entryY=0.25;entryDx=0;entryDy=0;endArrow=none;endFill=0;exitX=1;exitY=0.25;exitDx=0;exitDy=0;" edge="1" parent="1" source="pzGzUAJ5aYeJw6mnml0p-27" target="pzGzUAJ5aYeJw6mnml0p-19">
          <mxGeometry relative="1" as="geometry">
            <mxPoint x="365" y="220" as="sourcePoint" />
          </mxGeometry>
        </mxCell>
        <mxCell id="pzGzUAJ5aYeJw6mnml0p-12" value="" style="endArrow=diamondThin;endFill=1;endSize=24;html=1;rounded=0;entryX=0;entryY=0.25;entryDx=0;entryDy=0;exitX=1;exitY=0.25;exitDx=0;exitDy=0;" edge="1" parent="1" source="pzGzUAJ5aYeJw6mnml0p-4" target="pzGzUAJ5aYeJw6mnml0p-3">
          <mxGeometry width="160" relative="1" as="geometry">
            <mxPoint x="455" y="545" as="sourcePoint" />
            <mxPoint x="615" y="545" as="targetPoint" />
          </mxGeometry>
        </mxCell>
        <mxCell id="pzGzUAJ5aYeJw6mnml0p-13" value="1..*" style="text;html=1;strokeColor=none;fillColor=none;align=center;verticalAlign=middle;whiteSpace=wrap;rounded=0;" vertex="1" parent="1">
          <mxGeometry x="141" y="524" width="50" height="20" as="geometry" />
        </mxCell>
        <mxCell id="pzGzUAJ5aYeJw6mnml0p-14" value="1" style="text;html=1;strokeColor=none;fillColor=none;align=center;verticalAlign=middle;whiteSpace=wrap;rounded=0;" vertex="1" parent="1">
          <mxGeometry x="198" y="524" width="50" height="20" as="geometry" />
        </mxCell>
        <mxCell id="pzGzUAJ5aYeJw6mnml0p-15" value="&lt;p style=&quot;margin:0px;margin-top:4px;text-align:center;&quot;&gt;&lt;b&gt;公司員工&lt;/b&gt;&lt;/p&gt;&lt;hr size=&quot;1&quot;&gt;&lt;div style=&quot;height:2px;&quot;&gt;&lt;/div&gt;&lt;hr size=&quot;1&quot;&gt;&lt;div style=&quot;height:2px;&quot;&gt;&lt;/div&gt;" style="verticalAlign=top;align=left;overflow=fill;fontSize=12;fontFamily=Helvetica;html=1;whiteSpace=wrap;" vertex="1" parent="1">
          <mxGeometry x="-205" y="190" width="140" height="60" as="geometry" />
        </mxCell>
        <mxCell id="pzGzUAJ5aYeJw6mnml0p-16" value="Extends" style="endArrow=block;endSize=16;endFill=0;html=1;rounded=0;entryX=0.5;entryY=1;entryDx=0;entryDy=0;exitX=0.5;exitY=0;exitDx=0;exitDy=0;" edge="1" parent="1" source="pzGzUAJ5aYeJw6mnml0p-28" target="pzGzUAJ5aYeJw6mnml0p-15">
          <mxGeometry width="160" relative="1" as="geometry">
            <mxPoint x="-135" y="330" as="sourcePoint" />
            <mxPoint x="65" y="303.95" as="targetPoint" />
          </mxGeometry>
        </mxCell>
        <mxCell id="pzGzUAJ5aYeJw6mnml0p-17" value="Extends" style="endArrow=block;endSize=16;endFill=0;html=1;rounded=0;entryX=1;entryY=0.5;entryDx=0;entryDy=0;exitX=0;exitY=0.25;exitDx=0;exitDy=0;" edge="1" parent="1" source="pzGzUAJ5aYeJw6mnml0p-27" target="pzGzUAJ5aYeJw6mnml0p-15">
          <mxGeometry width="160" relative="1" as="geometry">
            <mxPoint x="225" y="220" as="sourcePoint" />
            <mxPoint x="465" y="295" as="targetPoint" />
          </mxGeometry>
        </mxCell>
        <mxCell id="pzGzUAJ5aYeJw6mnml0p-18" value="檢視" style="endArrow=open;endSize=12;dashed=1;html=1;rounded=0;exitX=0;exitY=0.25;exitDx=0;exitDy=0;entryX=1;entryY=0.25;entryDx=0;entryDy=0;" edge="1" parent="1" source="pzGzUAJ5aYeJw6mnml0p-28" target="pzGzUAJ5aYeJw6mnml0p-37">
          <mxGeometry width="160" relative="1" as="geometry">
            <mxPoint x="-205" y="360" as="sourcePoint" />
            <mxPoint x="-285" y="360" as="targetPoint" />
          </mxGeometry>
        </mxCell>
        <mxCell id="pzGzUAJ5aYeJw6mnml0p-19" value="&lt;p style=&quot;margin:0px;margin-top:4px;text-align:center;&quot;&gt;&lt;b&gt;修改發票&lt;/b&gt;&lt;/p&gt;&lt;hr size=&quot;1&quot;&gt;&lt;p style=&quot;border-color: var(--border-color); margin: 0px 0px 0px 4px;&quot;&gt;- 發票號碼(): String&lt;/p&gt;&lt;p style=&quot;border-color: var(--border-color); margin: 0px 0px 0px 4px;&quot;&gt;- 二聯三聯(): String&lt;/p&gt;&lt;p style=&quot;border-color: var(--border-color); margin: 0px 0px 0px 4px;&quot;&gt;- 年份月份(): String&lt;/p&gt;&lt;p style=&quot;border-color: var(--border-color); margin: 0px 0px 0px 4px;&quot;&gt;- 日期(): String&lt;/p&gt;&lt;p style=&quot;border-color: var(--border-color); margin: 0px 0px 0px 4px;&quot;&gt;- 統一編號(): Int&lt;/p&gt;&lt;p style=&quot;border-color: var(--border-color); margin: 0px 0px 0px 4px;&quot;&gt;- 買受人(): String&lt;/p&gt;&lt;p style=&quot;border-color: var(--border-color); margin: 0px 0px 0px 4px;&quot;&gt;- 地址(): String&lt;/p&gt;&lt;p style=&quot;border-color: var(--border-color); margin: 0px 0px 0px 4px;&quot;&gt;- 合計(): Int&lt;/p&gt;&lt;p style=&quot;border-color: var(--border-color); margin: 0px 0px 0px 4px;&quot;&gt;- 稅別(): String&lt;/p&gt;&lt;p style=&quot;border-color: var(--border-color); margin: 0px 0px 0px 4px;&quot;&gt;- 稅額(): Int&lt;/p&gt;&lt;p style=&quot;border-color: var(--border-color); margin: 0px 0px 0px 4px;&quot;&gt;- 總計(): Int&lt;/p&gt;&lt;p style=&quot;border-color: var(--border-color); margin: 0px 0px 0px 4px;&quot;&gt;- 中文總計(): String&lt;/p&gt;&lt;p style=&quot;border-color: var(--border-color); margin: 0px 0px 0px 4px;&quot;&gt;- 修改者帳號(): String&lt;/p&gt;&lt;p style=&quot;border-color: var(--border-color); margin: 0px 0px 0px 4px;&quot;&gt;- 品名(): String&lt;/p&gt;&lt;p style=&quot;border-color: var(--border-color); margin: 0px 0px 0px 4px;&quot;&gt;- 單價(): Int&lt;/p&gt;&lt;p style=&quot;border-color: var(--border-color); margin: 0px 0px 0px 4px;&quot;&gt;- 數量(): Int&lt;/p&gt;&lt;p style=&quot;border-color: var(--border-color); margin: 0px 0px 0px 4px;&quot;&gt;- 金額(): Int&lt;/p&gt;&amp;nbsp;- 發票檔位置():String&lt;hr size=&quot;1&quot;&gt;&lt;p style=&quot;margin:0px;margin-left:4px;&quot;&gt;&lt;br&gt;&lt;/p&gt;" style="verticalAlign=top;align=left;overflow=fill;fontSize=12;fontFamily=Helvetica;html=1;whiteSpace=wrap;" vertex="1" parent="1">
          <mxGeometry x="445" y="140" width="160" height="320" as="geometry" />
        </mxCell>
        <mxCell id="pzGzUAJ5aYeJw6mnml0p-20" value="" style="endArrow=diamondThin;endFill=0;endSize=24;html=1;rounded=0;entryX=1;entryY=0.25;entryDx=0;entryDy=0;exitX=0.5;exitY=1;exitDx=0;exitDy=0;edgeStyle=orthogonalEdgeStyle;" edge="1" parent="1" source="pzGzUAJ5aYeJw6mnml0p-19" target="pzGzUAJ5aYeJw6mnml0p-3">
          <mxGeometry width="160" relative="1" as="geometry">
            <mxPoint x="515" y="559.41" as="sourcePoint" />
            <mxPoint x="675" y="559.41" as="targetPoint" />
          </mxGeometry>
        </mxCell>
        <mxCell id="pzGzUAJ5aYeJw6mnml0p-21" value="1..*" style="text;html=1;strokeColor=none;fillColor=none;align=center;verticalAlign=middle;whiteSpace=wrap;rounded=0;" vertex="1" parent="1">
          <mxGeometry x="355" y="200" width="50" height="20" as="geometry" />
        </mxCell>
        <mxCell id="pzGzUAJ5aYeJw6mnml0p-22" value="1..*" style="text;html=1;strokeColor=none;fillColor=none;align=center;verticalAlign=middle;whiteSpace=wrap;rounded=0;" vertex="1" parent="1">
          <mxGeometry x="400" y="200" width="50" height="20" as="geometry" />
        </mxCell>
        <mxCell id="pzGzUAJ5aYeJw6mnml0p-23" value="1" style="text;html=1;strokeColor=none;fillColor=none;align=center;verticalAlign=middle;whiteSpace=wrap;rounded=0;" vertex="1" parent="1">
          <mxGeometry x="425" y="524" width="50" height="20" as="geometry" />
        </mxCell>
        <mxCell id="pzGzUAJ5aYeJw6mnml0p-24" value="1..*" style="text;html=1;strokeColor=none;fillColor=none;align=center;verticalAlign=middle;whiteSpace=wrap;rounded=0;" vertex="1" parent="1">
          <mxGeometry x="485" y="465" width="50" height="20" as="geometry" />
        </mxCell>
        <mxCell id="pzGzUAJ5aYeJw6mnml0p-25" value="1..*" style="text;html=1;strokeColor=none;fillColor=none;align=center;verticalAlign=middle;whiteSpace=wrap;rounded=0;" vertex="1" parent="1">
          <mxGeometry x="-180" y="449" width="50" height="20" as="geometry" />
        </mxCell>
        <mxCell id="pzGzUAJ5aYeJw6mnml0p-26" value="1..*" style="text;html=1;strokeColor=none;fillColor=none;align=center;verticalAlign=middle;whiteSpace=wrap;rounded=0;" vertex="1" parent="1">
          <mxGeometry x="-180" y="501" width="50" height="20" as="geometry" />
        </mxCell>
        <mxCell id="pzGzUAJ5aYeJw6mnml0p-27" value="&lt;p style=&quot;margin:0px;margin-top:4px;text-align:center;&quot;&gt;&lt;b&gt;發票檢核者(會員)&lt;/b&gt;&lt;/p&gt;&lt;hr size=&quot;1&quot;&gt;&lt;p style=&quot;border-color: var(--border-color); margin: 0px 0px 0px 4px;&quot;&gt;# 帳號(): String&lt;/p&gt;&lt;p style=&quot;border-color: var(--border-color); margin: 0px 0px 0px 4px;&quot;&gt;- 密碼(): String&lt;/p&gt;&lt;p style=&quot;border-color: var(--border-color); margin: 0px 0px 0px 4px;&quot;&gt;# 公司(): String&lt;/p&gt;&lt;p style=&quot;border-color: var(--border-color); margin: 0px 0px 0px 4px;&quot;&gt;- 權限(): String&lt;br&gt;&lt;/p&gt;&lt;hr size=&quot;1&quot;&gt;&lt;p style=&quot;border-color: var(--border-color); margin: 0px 0px 0px 4px;&quot;&gt;&lt;br&gt;&lt;/p&gt;&lt;p style=&quot;border-color: var(--border-color); margin: 0px 0px 0px 4px;&quot;&gt;&lt;br&gt;&lt;/p&gt;" style="verticalAlign=top;align=left;overflow=fill;fontSize=12;fontFamily=Helvetica;html=1;whiteSpace=wrap;" vertex="1" parent="1">
          <mxGeometry x="203" y="191" width="160" height="113" as="geometry" />
        </mxCell>
        <mxCell id="pzGzUAJ5aYeJw6mnml0p-28" value="&lt;p style=&quot;margin:0px;margin-top:4px;text-align:center;&quot;&gt;&lt;b&gt;公司管理者&lt;br&gt;&lt;/b&gt;&lt;/p&gt;&lt;hr size=&quot;1&quot;&gt;&lt;p style=&quot;border-color: var(--border-color); margin: 0px 0px 0px 4px;&quot;&gt;# 帳號(): String&lt;/p&gt;&lt;p style=&quot;border-color: var(--border-color); margin: 0px 0px 0px 4px;&quot;&gt;- 密碼(): String&lt;/p&gt;&lt;p style=&quot;border-color: var(--border-color); margin: 0px 0px 0px 4px;&quot;&gt;# 公司(): String&lt;/p&gt;&lt;p style=&quot;border-color: var(--border-color); margin: 0px 0px 0px 4px;&quot;&gt;- 權限(): String&lt;/p&gt;&lt;hr size=&quot;1&quot;&gt;&lt;p style=&quot;border-color: var(--border-color); margin: 0px 0px 0px 4px;&quot;&gt;&lt;br&gt;&lt;/p&gt;&lt;p style=&quot;border-color: var(--border-color); margin: 0px 0px 0px 4px;&quot;&gt;&lt;br&gt;&lt;/p&gt;" style="verticalAlign=top;align=left;overflow=fill;fontSize=12;fontFamily=Helvetica;html=1;whiteSpace=wrap;" vertex="1" parent="1">
          <mxGeometry x="-215" y="330.5" width="160" height="115.5" as="geometry" />
        </mxCell>
        <mxCell id="pzGzUAJ5aYeJw6mnml0p-29" value="&amp;nbsp;公司發票功能" style="shape=note;size=20;whiteSpace=wrap;html=1;" vertex="1" parent="1">
          <mxGeometry x="605" y="30" width="140" height="70" as="geometry" />
        </mxCell>
        <mxCell id="pzGzUAJ5aYeJw6mnml0p-30" style="edgeStyle=orthogonalEdgeStyle;rounded=0;orthogonalLoop=1;jettySize=auto;html=1;entryX=0.25;entryY=0;entryDx=0;entryDy=0;exitX=0.25;exitY=1;exitDx=0;exitDy=0;endArrow=none;endFill=0;" edge="1" parent="1" source="pzGzUAJ5aYeJw6mnml0p-31" target="pzGzUAJ5aYeJw6mnml0p-39">
          <mxGeometry relative="1" as="geometry">
            <mxPoint x="-570" y="422" as="targetPoint" />
          </mxGeometry>
        </mxCell>
        <mxCell id="pzGzUAJ5aYeJw6mnml0p-31" value="&lt;p style=&quot;margin:0px;margin-top:4px;text-align:center;&quot;&gt;&lt;b&gt;發票掃描者(會員)&lt;/b&gt;&lt;/p&gt;&lt;hr size=&quot;1&quot;&gt;&lt;p style=&quot;border-color: var(--border-color); margin: 0px 0px 0px 4px;&quot;&gt;# 帳號(): String&lt;/p&gt;&lt;p style=&quot;border-color: var(--border-color); margin: 0px 0px 0px 4px;&quot;&gt;- 密碼(): String&lt;/p&gt;&lt;p style=&quot;border-color: var(--border-color); margin: 0px 0px 0px 4px;&quot;&gt;# 公司(): String&lt;/p&gt;&lt;p style=&quot;border-color: var(--border-color); margin: 0px 0px 0px 4px;&quot;&gt;- 權限(): String&lt;br&gt;&lt;/p&gt;&lt;hr size=&quot;1&quot;&gt;&lt;p style=&quot;border-color: var(--border-color); margin: 0px 0px 0px 4px;&quot;&gt;&lt;br&gt;&lt;/p&gt;&lt;p style=&quot;border-color: var(--border-color); margin: 0px 0px 0px 4px;&quot;&gt;&lt;br&gt;&lt;/p&gt;" style="verticalAlign=top;align=left;overflow=fill;fontSize=12;fontFamily=Helvetica;html=1;whiteSpace=wrap;" vertex="1" parent="1">
          <mxGeometry x="-610" y="192" width="160" height="113" as="geometry" />
        </mxCell>
        <mxCell id="pzGzUAJ5aYeJw6mnml0p-32" value="Extends" style="endArrow=block;endSize=16;endFill=0;html=1;rounded=0;exitX=1;exitY=0.25;exitDx=0;exitDy=0;entryX=0;entryY=0.5;entryDx=0;entryDy=0;" edge="1" parent="1" source="pzGzUAJ5aYeJw6mnml0p-31" target="pzGzUAJ5aYeJw6mnml0p-15">
          <mxGeometry width="160" relative="1" as="geometry">
            <mxPoint x="213" y="229" as="sourcePoint" />
            <mxPoint x="-270" y="270" as="targetPoint" />
          </mxGeometry>
        </mxCell>
        <mxCell id="pzGzUAJ5aYeJw6mnml0p-33" value="Extends" style="endArrow=block;endSize=16;endFill=0;html=1;rounded=0;edgeStyle=orthogonalEdgeStyle;entryX=0.004;entryY=0.699;entryDx=0;entryDy=0;entryPerimeter=0;exitX=0.75;exitY=1;exitDx=0;exitDy=0;" edge="1" parent="1" source="pzGzUAJ5aYeJw6mnml0p-37" target="pzGzUAJ5aYeJw6mnml0p-3">
          <mxGeometry width="160" relative="1" as="geometry">
            <mxPoint x="-320" y="520" as="sourcePoint" />
            <mxPoint x="-310" y="590" as="targetPoint" />
            <Array as="points">
              <mxPoint x="-320" y="682" />
            </Array>
          </mxGeometry>
        </mxCell>
        <mxCell id="pzGzUAJ5aYeJw6mnml0p-34" value="1" style="text;html=1;strokeColor=none;fillColor=none;align=center;verticalAlign=middle;whiteSpace=wrap;rounded=0;" vertex="1" parent="1">
          <mxGeometry x="-610" y="306" width="50" height="20" as="geometry" />
        </mxCell>
        <mxCell id="pzGzUAJ5aYeJw6mnml0p-35" value="1..*" style="text;html=1;strokeColor=none;fillColor=none;align=center;verticalAlign=middle;whiteSpace=wrap;rounded=0;" vertex="1" parent="1">
          <mxGeometry x="-610" y="402" width="50" height="20" as="geometry" />
        </mxCell>
        <mxCell id="pzGzUAJ5aYeJw6mnml0p-36" value="Extends" style="endArrow=block;endSize=16;endFill=0;html=1;rounded=0;exitX=0;exitY=0.75;exitDx=0;exitDy=0;edgeStyle=orthogonalEdgeStyle;" edge="1" parent="1" source="pzGzUAJ5aYeJw6mnml0p-3">
          <mxGeometry width="160" relative="1" as="geometry">
            <mxPoint x="265" y="708" as="sourcePoint" />
            <mxPoint x="-500" y="490" as="targetPoint" />
            <Array as="points">
              <mxPoint x="-500" y="698" />
              <mxPoint x="-500" y="489" />
            </Array>
          </mxGeometry>
        </mxCell>
        <mxCell id="pzGzUAJ5aYeJw6mnml0p-37" value="&lt;p style=&quot;margin:0px;margin-top:4px;text-align:center;&quot;&gt;&lt;b&gt;圖 / 報表&lt;/b&gt;&lt;/p&gt;&lt;hr size=&quot;1&quot;&gt;&lt;p style=&quot;border-color: var(--border-color); margin: 0px 0px 0px 4px;&quot;&gt;- 公司(): String&lt;/p&gt;&lt;p style=&quot;border-color: var(--border-color); margin: 0px 0px 0px 4px;&quot;&gt;- 匯入總張數(): Int&lt;br&gt;&lt;/p&gt;&lt;p style=&quot;border-color: var(--border-color); margin: 0px 0px 0px 4px;&quot;&gt;- 第一次辨識成功張數(): Int&lt;/p&gt;&lt;p style=&quot;border-color: var(--border-color); margin: 0px 0px 0px 4px;&quot;&gt;- 修改成功張數(): Int&lt;br&gt;&lt;/p&gt;&lt;p style=&quot;border-color: var(--border-color); margin: 0px 0px 0px 4px;&quot;&gt;- 放棄修改張數(): Int&lt;br&gt;&lt;/p&gt;&lt;p style=&quot;border-color: var(--border-color); margin: 0px 0px 0px 4px;&quot;&gt;- 日期間(): String&lt;/p&gt;&lt;p style=&quot;border-color: var(--border-color); margin: 0px 0px 0px 4px;&quot;&gt;- 發票檢核者(): Stirng&lt;/p&gt;&lt;p style=&quot;border-color: var(--border-color); margin: 0px 0px 0px 4px;&quot;&gt;- 發票掃描者(): String&lt;/p&gt;&lt;hr size=&quot;1&quot;&gt;&lt;p style=&quot;border-color: var(--border-color); margin: 0px 0px 0px 4px;&quot;&gt;&lt;br&gt;&lt;/p&gt;&lt;p style=&quot;border-color: var(--border-color); margin: 0px 0px 0px 4px;&quot;&gt;&lt;br&gt;&lt;/p&gt;" style="verticalAlign=top;align=left;overflow=fill;fontSize=12;fontFamily=Helvetica;html=1;whiteSpace=wrap;" vertex="1" parent="1">
          <mxGeometry x="-440" y="314" width="160" height="180" as="geometry" />
        </mxCell>
        <mxCell id="pzGzUAJ5aYeJw6mnml0p-38" value="Extends" style="endArrow=block;endSize=16;endFill=0;html=1;rounded=0;exitX=0.75;exitY=0;exitDx=0;exitDy=0;entryX=0.036;entryY=1;entryDx=0;entryDy=0;entryPerimeter=0;" edge="1" parent="1" source="pzGzUAJ5aYeJw6mnml0p-37" target="pzGzUAJ5aYeJw6mnml0p-15">
          <mxGeometry width="160" relative="1" as="geometry">
            <mxPoint x="-440" y="230" as="sourcePoint" />
            <mxPoint x="-195" y="230" as="targetPoint" />
          </mxGeometry>
        </mxCell>
        <mxCell id="pzGzUAJ5aYeJw6mnml0p-39" value="&lt;p style=&quot;margin:0px;margin-top:4px;text-align:center;&quot;&gt;&lt;b&gt;掃描發票&lt;/b&gt;&lt;/p&gt;&lt;hr size=&quot;1&quot;&gt;&lt;p style=&quot;border-color: var(--border-color); margin: 0px 0px 0px 4px;&quot;&gt;- 發票(): Image&lt;/p&gt;&lt;hr size=&quot;1&quot;&gt;&lt;p style=&quot;border-color: var(--border-color); margin: 0px 0px 0px 4px;&quot;&gt;&lt;br&gt;&lt;/p&gt;&lt;p style=&quot;border-color: var(--border-color); margin: 0px 0px 0px 4px;&quot;&gt;&lt;br&gt;&lt;/p&gt;" style="verticalAlign=top;align=left;overflow=fill;fontSize=12;fontFamily=Helvetica;html=1;whiteSpace=wrap;" vertex="1" parent="1">
          <mxGeometry x="-610" y="420" width="160" height="68" as="geometry" />
        </mxCell>
      </root>
    </mxGraphModel>
  </diagram>
  <diagram name=" 個人發票功能" id="wenzPTMu0rDyyTVQgSvG">
    <mxGraphModel grid="1" page="1" gridSize="10" guides="1" tooltips="1" connect="1" arrows="1" fold="1" pageScale="1" pageWidth="850" pageHeight="1100" background="none" math="0" shadow="0">
      <root>
        <mxCell id="hxkmjTAxzGAtp459wg43-0" />
        <mxCell id="hxkmjTAxzGAtp459wg43-1" parent="hxkmjTAxzGAtp459wg43-0" />
        <mxCell id="AqyWznF8CpzeUqfMRqjE-0" value="&lt;p style=&quot;margin:0px;margin-top:4px;text-align:center;&quot;&gt;&lt;b&gt;使用者修改密碼&lt;/b&gt;&lt;/p&gt;&lt;hr size=&quot;1&quot;&gt;&lt;p style=&quot;border-color: var(--border-color); margin: 0px 0px 0px 4px;&quot;&gt;- 一次性密碼(): String&lt;span style=&quot;background-color: initial;&quot;&gt;&lt;br&gt;&lt;/span&gt;&lt;/p&gt;&lt;p style=&quot;border-color: var(--border-color); margin: 0px 0px 0px 4px;&quot;&gt;&lt;span style=&quot;background-color: initial;&quot;&gt;- 新密碼(): String&lt;/span&gt;&lt;/p&gt;&lt;hr size=&quot;1&quot;&gt;&lt;p style=&quot;border-color: var(--border-color); margin: 0px 0px 0px 4px;&quot;&gt;&lt;br&gt;&lt;/p&gt;&lt;p style=&quot;border-color: var(--border-color); margin: 0px 0px 0px 4px;&quot;&gt;&lt;br&gt;&lt;/p&gt;" style="verticalAlign=top;align=left;overflow=fill;fontSize=12;fontFamily=Helvetica;html=1;whiteSpace=wrap;" vertex="1" parent="hxkmjTAxzGAtp459wg43-1">
          <mxGeometry x="203" y="332" width="160" height="88" as="geometry" />
        </mxCell>
        <mxCell id="AqyWznF8CpzeUqfMRqjE-1" value="&lt;p style=&quot;margin:0px;margin-top:4px;text-align:center;&quot;&gt;&lt;b&gt;發票主檔&lt;/b&gt;&lt;/p&gt;&lt;hr size=&quot;1&quot;&gt;&lt;p style=&quot;border-color: var(--border-color); margin: 0px 0px 0px 4px;&quot;&gt;# 發票號碼(): String&lt;/p&gt;&lt;p style=&quot;border-color: var(--border-color); margin: 0px 0px 0px 4px;&quot;&gt;# 年份月份(): String&lt;/p&gt;&lt;p style=&quot;border-color: var(--border-color); margin: 0px 0px 0px 4px;&quot;&gt;# 日期(): String&lt;/p&gt;&lt;p style=&quot;border-color: var(--border-color); margin: 0px 0px 0px 4px;&quot;&gt;# 合計(): Int&lt;/p&gt;&lt;p style=&quot;border-color: var(--border-color); margin: 0px 0px 0px 4px;&quot;&gt;# 總計(): Int&lt;/p&gt;&lt;p style=&quot;border-color: var(--border-color); margin: 0px 0px 0px 4px;&quot;&gt;- 匯入日期(): String&lt;/p&gt;&lt;p style=&quot;border-color: var(--border-color); margin: 0px 0px 0px 4px;&quot;&gt;# 檢核正確否(): Boolean&lt;/p&gt;&lt;p style=&quot;border-color: var(--border-color); margin: 0px 0px 0px 4px;&quot;&gt;- 掃描檔連結(): String&lt;/p&gt;&lt;hr size=&quot;1&quot;&gt;&lt;p style=&quot;margin:0px;margin-left:4px;&quot;&gt;&lt;br&gt;&lt;/p&gt;" style="verticalAlign=top;align=left;overflow=fill;fontSize=12;fontFamily=Helvetica;html=1;whiteSpace=wrap;" vertex="1" parent="hxkmjTAxzGAtp459wg43-1">
          <mxGeometry x="255" y="499" width="160" height="175" as="geometry" />
        </mxCell>
        <mxCell id="AqyWznF8CpzeUqfMRqjE-2" value="&lt;p style=&quot;margin:0px;margin-top:4px;text-align:center;&quot;&gt;&lt;b&gt;發票明細檔&lt;/b&gt;&lt;/p&gt;&lt;hr size=&quot;1&quot;&gt;&lt;p style=&quot;border-color: var(--border-color); margin: 0px 0px 0px 4px;&quot;&gt;# 發票號碼(): String&lt;/p&gt;&lt;p style=&quot;border-color: var(--border-color); margin: 0px 0px 0px 4px;&quot;&gt;# 項次(): Int&lt;/p&gt;&lt;p style=&quot;border-color: var(--border-color); margin: 0px 0px 0px 4px;&quot;&gt;# 品名(): String&lt;/p&gt;&lt;p style=&quot;border-color: var(--border-color); margin: 0px 0px 0px 4px;&quot;&gt;# 單價(): Int&lt;/p&gt;&lt;p style=&quot;border-color: var(--border-color); margin: 0px 0px 0px 4px;&quot;&gt;# 數量(): Int&lt;/p&gt;&lt;p style=&quot;border-color: var(--border-color); margin: 0px 0px 0px 4px;&quot;&gt;# 金額(): Int&lt;/p&gt;&lt;hr size=&quot;1&quot;&gt;&lt;p style=&quot;margin:0px;margin-left:4px;&quot;&gt;&lt;br&gt;&lt;/p&gt;&lt;p style=&quot;margin:0px;margin-left:4px;&quot;&gt;&lt;br&gt;&lt;/p&gt;" style="verticalAlign=top;align=left;overflow=fill;fontSize=12;fontFamily=Helvetica;html=1;whiteSpace=wrap;" vertex="1" parent="hxkmjTAxzGAtp459wg43-1">
          <mxGeometry x="-4" y="505" width="160" height="150" as="geometry" />
        </mxCell>
        <mxCell id="AqyWznF8CpzeUqfMRqjE-3" style="edgeStyle=orthogonalEdgeStyle;rounded=0;orthogonalLoop=1;jettySize=auto;html=1;entryX=0.5;entryY=0;entryDx=0;entryDy=0;endArrow=none;endFill=0;exitX=0.5;exitY=1;exitDx=0;exitDy=0;" edge="1" parent="hxkmjTAxzGAtp459wg43-1" source="AqyWznF8CpzeUqfMRqjE-17" target="AqyWznF8CpzeUqfMRqjE-0">
          <mxGeometry relative="1" as="geometry">
            <mxPoint x="300" y="280" as="sourcePoint" />
          </mxGeometry>
        </mxCell>
        <mxCell id="AqyWznF8CpzeUqfMRqjE-4" style="edgeStyle=orthogonalEdgeStyle;rounded=0;orthogonalLoop=1;jettySize=auto;html=1;entryX=0;entryY=0.25;entryDx=0;entryDy=0;endArrow=none;endFill=0;exitX=1;exitY=0.25;exitDx=0;exitDy=0;" edge="1" parent="hxkmjTAxzGAtp459wg43-1" source="AqyWznF8CpzeUqfMRqjE-17" target="AqyWznF8CpzeUqfMRqjE-9">
          <mxGeometry relative="1" as="geometry">
            <mxPoint x="365" y="220" as="sourcePoint" />
          </mxGeometry>
        </mxCell>
        <mxCell id="AqyWznF8CpzeUqfMRqjE-5" value="" style="endArrow=diamondThin;endFill=1;endSize=24;html=1;rounded=0;entryX=0;entryY=0.25;entryDx=0;entryDy=0;exitX=1;exitY=0.25;exitDx=0;exitDy=0;" edge="1" parent="hxkmjTAxzGAtp459wg43-1" source="AqyWznF8CpzeUqfMRqjE-2" target="AqyWznF8CpzeUqfMRqjE-1">
          <mxGeometry width="160" relative="1" as="geometry">
            <mxPoint x="455" y="545" as="sourcePoint" />
            <mxPoint x="615" y="545" as="targetPoint" />
          </mxGeometry>
        </mxCell>
        <mxCell id="AqyWznF8CpzeUqfMRqjE-6" value="1..*" style="text;html=1;strokeColor=none;fillColor=none;align=center;verticalAlign=middle;whiteSpace=wrap;rounded=0;" vertex="1" parent="hxkmjTAxzGAtp459wg43-1">
          <mxGeometry x="148" y="524" width="50" height="20" as="geometry" />
        </mxCell>
        <mxCell id="AqyWznF8CpzeUqfMRqjE-7" value="1" style="text;html=1;strokeColor=none;fillColor=none;align=center;verticalAlign=middle;whiteSpace=wrap;rounded=0;" vertex="1" parent="hxkmjTAxzGAtp459wg43-1">
          <mxGeometry x="195" y="524" width="50" height="20" as="geometry" />
        </mxCell>
        <mxCell id="AqyWznF8CpzeUqfMRqjE-8" value="檢視" style="endArrow=open;endSize=12;dashed=1;html=1;rounded=0;exitX=0;exitY=0.5;exitDx=0;exitDy=0;entryX=1;entryY=0.5;entryDx=0;entryDy=0;" edge="1" parent="hxkmjTAxzGAtp459wg43-1" source="AqyWznF8CpzeUqfMRqjE-17" target="AqyWznF8CpzeUqfMRqjE-29">
          <mxGeometry x="-0.0053" width="160" relative="1" as="geometry">
            <mxPoint x="-215" y="359.375" as="sourcePoint" />
            <mxPoint x="80" y="193" as="targetPoint" />
            <mxPoint as="offset" />
          </mxGeometry>
        </mxCell>
        <mxCell id="AqyWznF8CpzeUqfMRqjE-9" value="&lt;p style=&quot;margin:0px;margin-top:4px;text-align:center;&quot;&gt;&lt;b&gt;修改發票&lt;/b&gt;&lt;/p&gt;&lt;hr size=&quot;1&quot;&gt;&lt;p style=&quot;border-color: var(--border-color); margin: 0px 0px 0px 4px;&quot;&gt;- 發票號碼(): String&lt;/p&gt;&lt;p style=&quot;border-color: var(--border-color); margin: 0px 0px 0px 4px;&quot;&gt;- 年份月份(): String&lt;/p&gt;&lt;p style=&quot;border-color: var(--border-color); margin: 0px 0px 0px 4px;&quot;&gt;- 日期(): String&lt;/p&gt;&lt;p style=&quot;border-color: var(--border-color); margin: 0px 0px 0px 4px;&quot;&gt;- 合計(): Int&lt;/p&gt;&lt;p style=&quot;border-color: var(--border-color); margin: 0px 0px 0px 4px;&quot;&gt;- 總計(): Int&lt;/p&gt;&lt;p style=&quot;border-color: var(--border-color); margin: 0px 0px 0px 4px;&quot;&gt;- 品名(): String&lt;/p&gt;&lt;p style=&quot;border-color: var(--border-color); margin: 0px 0px 0px 4px;&quot;&gt;- 單價(): Int&lt;/p&gt;&lt;p style=&quot;border-color: var(--border-color); margin: 0px 0px 0px 4px;&quot;&gt;- 數量(): Int&lt;/p&gt;&lt;p style=&quot;border-color: var(--border-color); margin: 0px 0px 0px 4px;&quot;&gt;- 金額(): Int&lt;/p&gt;&lt;div&gt;&amp;nbsp;- 發票檔位置():String&lt;br&gt;&lt;/div&gt;&lt;hr size=&quot;1&quot;&gt;&lt;p style=&quot;margin:0px;margin-left:4px;&quot;&gt;&lt;br&gt;&lt;/p&gt;" style="verticalAlign=top;align=left;overflow=fill;fontSize=12;fontFamily=Helvetica;html=1;whiteSpace=wrap;" vertex="1" parent="hxkmjTAxzGAtp459wg43-1">
          <mxGeometry x="445" y="163" width="160" height="200" as="geometry" />
        </mxCell>
        <mxCell id="AqyWznF8CpzeUqfMRqjE-10" value="" style="endArrow=diamondThin;endFill=0;endSize=24;html=1;rounded=0;entryX=1;entryY=0.25;entryDx=0;entryDy=0;exitX=0.5;exitY=1;exitDx=0;exitDy=0;edgeStyle=orthogonalEdgeStyle;" edge="1" parent="hxkmjTAxzGAtp459wg43-1" source="AqyWznF8CpzeUqfMRqjE-9" target="AqyWznF8CpzeUqfMRqjE-1">
          <mxGeometry width="160" relative="1" as="geometry">
            <mxPoint x="515" y="559.41" as="sourcePoint" />
            <mxPoint x="675" y="559.41" as="targetPoint" />
          </mxGeometry>
        </mxCell>
        <mxCell id="AqyWznF8CpzeUqfMRqjE-11" value="1" style="text;html=1;strokeColor=none;fillColor=none;align=center;verticalAlign=middle;whiteSpace=wrap;rounded=0;" vertex="1" parent="hxkmjTAxzGAtp459wg43-1">
          <mxGeometry x="348" y="198" width="50" height="20" as="geometry" />
        </mxCell>
        <mxCell id="AqyWznF8CpzeUqfMRqjE-12" value="1..*" style="text;html=1;strokeColor=none;fillColor=none;align=center;verticalAlign=middle;whiteSpace=wrap;rounded=0;" vertex="1" parent="hxkmjTAxzGAtp459wg43-1">
          <mxGeometry x="400" y="197" width="50" height="20" as="geometry" />
        </mxCell>
        <mxCell id="AqyWznF8CpzeUqfMRqjE-13" value="1" style="text;html=1;strokeColor=none;fillColor=none;align=center;verticalAlign=middle;whiteSpace=wrap;rounded=0;" vertex="1" parent="hxkmjTAxzGAtp459wg43-1">
          <mxGeometry x="425" y="524" width="50" height="20" as="geometry" />
        </mxCell>
        <mxCell id="AqyWznF8CpzeUqfMRqjE-14" value="1..*" style="text;html=1;strokeColor=none;fillColor=none;align=center;verticalAlign=middle;whiteSpace=wrap;rounded=0;" vertex="1" parent="hxkmjTAxzGAtp459wg43-1">
          <mxGeometry x="485" y="366" width="50" height="20" as="geometry" />
        </mxCell>
        <mxCell id="AqyWznF8CpzeUqfMRqjE-15" style="rounded=0;orthogonalLoop=1;jettySize=auto;html=1;entryX=1;entryY=0;entryDx=0;entryDy=0;exitX=0;exitY=1;exitDx=0;exitDy=0;endArrow=none;endFill=0;" edge="1" parent="hxkmjTAxzGAtp459wg43-1" source="AqyWznF8CpzeUqfMRqjE-17" target="AqyWznF8CpzeUqfMRqjE-22">
          <mxGeometry relative="1" as="geometry" />
        </mxCell>
        <mxCell id="AqyWznF8CpzeUqfMRqjE-16" style="rounded=0;orthogonalLoop=1;jettySize=auto;html=1;entryX=1;entryY=0;entryDx=0;entryDy=0;exitX=0;exitY=1;exitDx=0;exitDy=0;endArrow=none;endFill=0;" edge="1" parent="hxkmjTAxzGAtp459wg43-1" source="AqyWznF8CpzeUqfMRqjE-17">
          <mxGeometry relative="1" as="geometry">
            <mxPoint x="80" y="380" as="targetPoint" />
          </mxGeometry>
        </mxCell>
        <mxCell id="AqyWznF8CpzeUqfMRqjE-17" value="&lt;p style=&quot;margin:0px;margin-top:4px;text-align:center;&quot;&gt;&lt;b&gt;個人使用者&lt;/b&gt;&lt;/p&gt;&lt;hr size=&quot;1&quot;&gt;&lt;p style=&quot;border-color: var(--border-color); margin: 0px 0px 0px 4px;&quot;&gt;# 帳號(): String&lt;/p&gt;&lt;p style=&quot;border-color: var(--border-color); margin: 0px 0px 0px 4px;&quot;&gt;- 密碼(): String&lt;/p&gt;&lt;hr size=&quot;1&quot;&gt;&lt;p style=&quot;border-color: var(--border-color); margin: 0px 0px 0px 4px;&quot;&gt;&lt;br&gt;&lt;/p&gt;&lt;p style=&quot;border-color: var(--border-color); margin: 0px 0px 0px 4px;&quot;&gt;&lt;br&gt;&lt;/p&gt;" style="verticalAlign=top;align=left;overflow=fill;fontSize=12;fontFamily=Helvetica;html=1;whiteSpace=wrap;" vertex="1" parent="hxkmjTAxzGAtp459wg43-1">
          <mxGeometry x="203" y="191" width="160" height="89" as="geometry" />
        </mxCell>
        <mxCell id="AqyWznF8CpzeUqfMRqjE-18" value="&amp;nbsp;個人發票功能" style="shape=note;size=20;whiteSpace=wrap;html=1;" vertex="1" parent="hxkmjTAxzGAtp459wg43-1">
          <mxGeometry x="485" y="-10" width="140" height="70" as="geometry" />
        </mxCell>
        <mxCell id="AqyWznF8CpzeUqfMRqjE-19" value="Extends" style="endArrow=block;endSize=16;endFill=0;html=1;rounded=0;exitX=0.25;exitY=1;exitDx=0;exitDy=0;edgeStyle=orthogonalEdgeStyle;entryX=0.25;entryY=1;entryDx=0;entryDy=0;" edge="1" parent="hxkmjTAxzGAtp459wg43-1" source="AqyWznF8CpzeUqfMRqjE-1">
          <mxGeometry x="-0.4356" width="160" relative="1" as="geometry">
            <mxPoint x="255" y="698" as="sourcePoint" />
            <mxPoint x="-25" y="440" as="targetPoint" />
            <Array as="points">
              <mxPoint x="295" y="700" />
              <mxPoint x="-25" y="700" />
            </Array>
            <mxPoint as="offset" />
          </mxGeometry>
        </mxCell>
        <mxCell id="AqyWznF8CpzeUqfMRqjE-20" value="檢視" style="endArrow=open;endSize=12;dashed=1;html=1;rounded=0;entryX=1;entryY=0.75;entryDx=0;entryDy=0;edgeStyle=orthogonalEdgeStyle;" edge="1" parent="hxkmjTAxzGAtp459wg43-1" source="AqyWznF8CpzeUqfMRqjE-17" target="AqyWznF8CpzeUqfMRqjE-28">
          <mxGeometry x="-0.0053" width="160" relative="1" as="geometry">
            <mxPoint x="213" y="246" as="sourcePoint" />
            <mxPoint x="90" y="160" as="targetPoint" />
            <mxPoint as="offset" />
          </mxGeometry>
        </mxCell>
        <mxCell id="AqyWznF8CpzeUqfMRqjE-21" value="檢視" style="endArrow=open;endSize=12;dashed=1;html=1;rounded=0;entryX=1;entryY=0.75;entryDx=0;entryDy=0;" edge="1" parent="hxkmjTAxzGAtp459wg43-1" source="AqyWznF8CpzeUqfMRqjE-17" target="AqyWznF8CpzeUqfMRqjE-30">
          <mxGeometry x="-0.0053" width="160" relative="1" as="geometry">
            <mxPoint x="213" y="246" as="sourcePoint" />
            <mxPoint x="90" y="240" as="targetPoint" />
            <mxPoint as="offset" />
          </mxGeometry>
        </mxCell>
        <mxCell id="AqyWznF8CpzeUqfMRqjE-22" value="&lt;p style=&quot;margin:0px;margin-top:4px;text-align:center;&quot;&gt;&lt;b&gt;記帳及新增內容&lt;/b&gt;&lt;/p&gt;&lt;hr size=&quot;1&quot;&gt;&lt;p style=&quot;border-color: var(--border-color); margin: 0px 0px 0px 4px;&quot;&gt;# 發票號碼(): String&lt;/p&gt;&lt;p style=&quot;border-color: var(--border-color); margin: 0px 0px 0px 4px;&quot;&gt;# 類別():String&lt;/p&gt;&lt;p style=&quot;border-color: var(--border-color); margin: 0px 0px 0px 4px;&quot;&gt;# 購買時間():String&lt;/p&gt;&lt;p style=&quot;border-color: var(--border-color); margin: 0px 0px 0px 4px;&quot;&gt;# 購買內容(): String&lt;/p&gt;&lt;p style=&quot;border-color: var(--border-color); margin: 0px 0px 0px 4px;&quot;&gt;# 合計(): Int&lt;/p&gt;&lt;p style=&quot;border-color: var(--border-color); margin: 0px 0px 0px 4px;&quot;&gt;# 總計(): Int&lt;/p&gt;&lt;p style=&quot;border-color: var(--border-color); margin: 0px 0px 0px 4px;&quot;&gt;# 單價(): Int&lt;/p&gt;&lt;p style=&quot;border-color: var(--border-color); margin: 0px 0px 0px 4px;&quot;&gt;# 數量(): Int&lt;/p&gt;&lt;p style=&quot;border-color: var(--border-color); margin: 0px 0px 0px 4px;&quot;&gt;- 時間():String&lt;/p&gt;&lt;hr size=&quot;1&quot;&gt;&lt;p style=&quot;margin:0px;margin-left:4px;&quot;&gt;&lt;br&gt;&lt;/p&gt;" style="verticalAlign=top;align=left;overflow=fill;fontSize=12;fontFamily=Helvetica;html=1;whiteSpace=wrap;" vertex="1" parent="hxkmjTAxzGAtp459wg43-1">
          <mxGeometry x="-260" y="360" width="160" height="190" as="geometry" />
        </mxCell>
        <mxCell id="AqyWznF8CpzeUqfMRqjE-23" value="Extends" style="endArrow=block;endSize=16;endFill=0;html=1;rounded=0;exitX=0.75;exitY=1;exitDx=0;exitDy=0;edgeStyle=orthogonalEdgeStyle;entryX=0.5;entryY=1;entryDx=0;entryDy=0;" edge="1" parent="hxkmjTAxzGAtp459wg43-1" source="AqyWznF8CpzeUqfMRqjE-22" target="AqyWznF8CpzeUqfMRqjE-1">
          <mxGeometry x="0.0207" width="160" relative="1" as="geometry">
            <mxPoint x="100" y="783" as="sourcePoint" />
            <mxPoint x="-180" y="525" as="targetPoint" />
            <mxPoint as="offset" />
            <Array as="points">
              <mxPoint x="-140" y="720" />
              <mxPoint x="335" y="720" />
            </Array>
          </mxGeometry>
        </mxCell>
        <mxCell id="AqyWznF8CpzeUqfMRqjE-24" value="1" style="text;html=1;strokeColor=none;fillColor=none;align=center;verticalAlign=middle;whiteSpace=wrap;rounded=0;" vertex="1" parent="hxkmjTAxzGAtp459wg43-1">
          <mxGeometry x="165" y="267" width="50" height="20" as="geometry" />
        </mxCell>
        <mxCell id="AqyWznF8CpzeUqfMRqjE-25" value="1" style="text;html=1;strokeColor=none;fillColor=none;align=center;verticalAlign=middle;whiteSpace=wrap;rounded=0;" vertex="1" parent="hxkmjTAxzGAtp459wg43-1">
          <mxGeometry x="178" y="280" width="50" height="20" as="geometry" />
        </mxCell>
        <mxCell id="AqyWznF8CpzeUqfMRqjE-26" value="1..*" style="text;html=1;strokeColor=none;fillColor=none;align=center;verticalAlign=middle;whiteSpace=wrap;rounded=0;" vertex="1" parent="hxkmjTAxzGAtp459wg43-1">
          <mxGeometry x="-114" y="337" width="50" height="20" as="geometry" />
        </mxCell>
        <mxCell id="AqyWznF8CpzeUqfMRqjE-27" value="1..*" style="text;html=1;strokeColor=none;fillColor=none;align=center;verticalAlign=middle;whiteSpace=wrap;rounded=0;" vertex="1" parent="hxkmjTAxzGAtp459wg43-1">
          <mxGeometry x="85" y="366" width="50" height="20" as="geometry" />
        </mxCell>
        <mxCell id="AqyWznF8CpzeUqfMRqjE-28" value="&lt;p style=&quot;margin:0px;margin-top:4px;text-align:center;&quot;&gt;&lt;b&gt;優惠資訊&lt;/b&gt;&lt;/p&gt;&lt;hr size=&quot;1&quot;&gt;&lt;p style=&quot;border-color: var(--border-color); margin: 0px 0px 0px 4px;&quot;&gt;# 活動名稱(): String&lt;/p&gt;&lt;p style=&quot;border-color: var(--border-color); margin: 0px 0px 0px 4px;&quot;&gt;# 活動內容(): String&lt;/p&gt;&lt;p style=&quot;border-color: var(--border-color); margin: 0px 0px 0px 4px;&quot;&gt;# 活動開始時間(): String&lt;/p&gt;&lt;p style=&quot;border-color: var(--border-color); margin: 0px 0px 0px 4px;&quot;&gt;# 活動截止時間(): String&lt;/p&gt;&lt;hr size=&quot;1&quot;&gt;&lt;p style=&quot;border-color: var(--border-color); margin: 0px 0px 0px 4px;&quot;&gt;&lt;br&gt;&lt;/p&gt;&lt;p style=&quot;border-color: var(--border-color); margin: 0px 0px 0px 4px;&quot;&gt;&lt;br&gt;&lt;/p&gt;" style="verticalAlign=top;align=left;overflow=fill;fontSize=12;fontFamily=Helvetica;html=1;whiteSpace=wrap;" vertex="1" parent="hxkmjTAxzGAtp459wg43-1">
          <mxGeometry x="80" y="11" width="160" height="112" as="geometry" />
        </mxCell>
        <mxCell id="AqyWznF8CpzeUqfMRqjE-29" value="&lt;p style=&quot;margin:0px;margin-top:4px;text-align:center;&quot;&gt;&lt;b&gt;圖表&lt;/b&gt;&lt;/p&gt;&lt;hr size=&quot;1&quot;&gt;&lt;p style=&quot;border-color: var(--border-color); margin: 0px 0px 0px 4px;&quot;&gt;- 類別(): String&lt;/p&gt;&lt;p style=&quot;border-color: var(--border-color); margin: 0px 0px 0px 4px;&quot;&gt;- 總計金額(): Int&lt;/p&gt;&lt;hr size=&quot;1&quot;&gt;&lt;p style=&quot;border-color: var(--border-color); margin: 0px 0px 0px 4px;&quot;&gt;&lt;br&gt;&lt;/p&gt;&lt;p style=&quot;border-color: var(--border-color); margin: 0px 0px 0px 4px;&quot;&gt;&lt;br&gt;&lt;/p&gt;" style="verticalAlign=top;align=left;overflow=fill;fontSize=12;fontFamily=Helvetica;html=1;whiteSpace=wrap;" vertex="1" parent="hxkmjTAxzGAtp459wg43-1">
          <mxGeometry x="-110" y="204" width="160" height="83" as="geometry" />
        </mxCell>
        <mxCell id="AqyWznF8CpzeUqfMRqjE-30" value="&lt;p style=&quot;margin:0px;margin-top:4px;text-align:center;&quot;&gt;&lt;b&gt;中獎發票&lt;/b&gt;&lt;/p&gt;&lt;hr size=&quot;1&quot;&gt;&lt;p style=&quot;border-color: var(--border-color); margin: 0px 0px 0px 4px;&quot;&gt;- 中獎發票號碼(): String&lt;/p&gt;&lt;p style=&quot;border-color: var(--border-color); margin: 0px 0px 0px 4px;&quot;&gt;- 發票內容(): String&lt;/p&gt;&lt;p style=&quot;border-color: var(--border-color); margin: 0px 0px 0px 4px;&quot;&gt;- 兌換推薦(): String&lt;/p&gt;&lt;p style=&quot;border-color: var(--border-color); margin: 0px 0px 0px 4px;&quot;&gt;- 兌換開始時間(): String&lt;/p&gt;&lt;p style=&quot;border-color: var(--border-color); margin: 0px 0px 0px 4px;&quot;&gt;- 兌換截止時間(): String&lt;/p&gt;&lt;hr size=&quot;1&quot;&gt;&lt;p style=&quot;border-color: var(--border-color); margin: 0px 0px 0px 4px;&quot;&gt;&lt;br&gt;&lt;/p&gt;&lt;p style=&quot;border-color: var(--border-color); margin: 0px 0px 0px 4px;&quot;&gt;&lt;br&gt;&lt;/p&gt;" style="verticalAlign=top;align=left;overflow=fill;fontSize=12;fontFamily=Helvetica;html=1;whiteSpace=wrap;" vertex="1" parent="hxkmjTAxzGAtp459wg43-1">
          <mxGeometry x="-260" y="36" width="160" height="127" as="geometry" />
        </mxCell>
        <mxCell id="AqyWznF8CpzeUqfMRqjE-31" value="Extends" style="endArrow=block;endSize=16;endFill=0;html=1;rounded=0;exitX=1;exitY=0.25;exitDx=0;exitDy=0;entryX=0;entryY=0.5;entryDx=0;entryDy=0;edgeStyle=orthogonalEdgeStyle;" edge="1" parent="hxkmjTAxzGAtp459wg43-1" source="AqyWznF8CpzeUqfMRqjE-30" target="AqyWznF8CpzeUqfMRqjE-28">
          <mxGeometry width="160" relative="1" as="geometry">
            <mxPoint x="-480" y="267" as="sourcePoint" />
            <mxPoint x="-320" y="267" as="targetPoint" />
          </mxGeometry>
        </mxCell>
        <mxCell id="AqyWznF8CpzeUqfMRqjE-32" value="Extends" style="endArrow=block;endSize=16;endFill=0;html=1;rounded=0;exitX=0.25;exitY=1;exitDx=0;exitDy=0;entryX=0.25;entryY=0;entryDx=0;entryDy=0;" edge="1" parent="hxkmjTAxzGAtp459wg43-1" source="AqyWznF8CpzeUqfMRqjE-30" target="AqyWznF8CpzeUqfMRqjE-22">
          <mxGeometry width="160" relative="1" as="geometry">
            <mxPoint x="-470" y="277" as="sourcePoint" />
            <mxPoint x="-310" y="277" as="targetPoint" />
          </mxGeometry>
        </mxCell>
        <mxCell id="AqyWznF8CpzeUqfMRqjE-33" value="Extends" style="endArrow=block;endSize=16;endFill=0;html=1;rounded=0;exitX=0.25;exitY=1;exitDx=0;exitDy=0;entryX=0.5;entryY=0;entryDx=0;entryDy=0;" edge="1" parent="hxkmjTAxzGAtp459wg43-1" source="AqyWznF8CpzeUqfMRqjE-29" target="AqyWznF8CpzeUqfMRqjE-22">
          <mxGeometry width="160" relative="1" as="geometry">
            <mxPoint x="-170" y="173" as="sourcePoint" />
            <mxPoint x="-170" y="370" as="targetPoint" />
          </mxGeometry>
        </mxCell>
        <mxCell id="AqyWznF8CpzeUqfMRqjE-34" value="&lt;p style=&quot;margin:0px;margin-top:4px;text-align:center;&quot;&gt;&lt;b&gt;掃描發票&lt;/b&gt;&lt;/p&gt;&lt;hr size=&quot;1&quot;&gt;&lt;p style=&quot;border-color: var(--border-color); margin: 0px 0px 0px 4px;&quot;&gt;- 發票(): Image&lt;/p&gt;&lt;hr size=&quot;1&quot;&gt;&lt;p style=&quot;border-color: var(--border-color); margin: 0px 0px 0px 4px;&quot;&gt;&lt;br&gt;&lt;/p&gt;&lt;p style=&quot;border-color: var(--border-color); margin: 0px 0px 0px 4px;&quot;&gt;&lt;br&gt;&lt;/p&gt;" style="verticalAlign=top;align=left;overflow=fill;fontSize=12;fontFamily=Helvetica;html=1;whiteSpace=wrap;" vertex="1" parent="hxkmjTAxzGAtp459wg43-1">
          <mxGeometry x="-80" y="370" width="160" height="68" as="geometry" />
        </mxCell>
      </root>
    </mxGraphModel>
  </diagram>
</mxfile>
